<svg width="100" height="32" viewBox="0 0 100 32" fill="none" xmlns="http://www.w3.org/2000/svg">
<path d="M92.3528 0H5.64715C2.5283 0 0 2.34097 0 5.2287V26.7713C0 29.659 2.5283 32 5.64715 32H92.3528C95.4716 32 98 29.659 98 26.7713V5.2287C98 2.34097 95.4716 0 92.3528 0Z" fill="#0284C7"/>
<path fill-rule="evenodd" clip-rule="evenodd" d="M16.412 8.3135C15.4539 8.60288 14.5636 9.08133 13.7935 9.72058C13.4709 9.17058 12.9577 8.75812 12.3511 8.56142C13.3087 7.70003 14.4345 7.04668 15.6575 6.64263C16.8805 6.2386 18.1741 6.09267 19.4564 6.21412C20.7387 6.33554 21.9818 6.72166 23.1072 7.34808C23.392 7.50658 23.6676 7.6796 23.9332 7.86624C23.9422 7.8623 23.9514 7.85844 23.9605 7.85464C24.3052 7.7119 24.6845 7.67457 25.0503 7.74736C25.4162 7.82017 25.7523 7.99982 26.0161 8.26361C26.2799 8.52739 26.4595 8.86347 26.5322 9.22935C26.605 9.59522 26.5676 9.97447 26.4248 10.3191C26.282 10.6637 26.0402 10.9582 25.73 11.1654C25.4198 11.3727 25.0551 11.4832 24.682 11.4832C24.4343 11.4832 24.1891 11.4344 23.9603 11.3396C23.7314 11.2448 23.5235 11.1059 23.3484 10.9308C23.1733 10.7556 23.0343 10.5477 22.9396 10.3189C22.8448 10.0901 22.7961 9.84482 22.7961 9.59716C22.7961 9.50042 22.8035 9.40425 22.8182 9.30945C22.6207 9.17382 22.4165 9.04751 22.2062 8.93104C21.3306 8.44624 20.3668 8.14179 19.3716 8.03574C18.3764 7.92966 17.3701 8.02411 16.412 8.3135ZM13.4397 11.0306C13.4397 11.3857 13.3394 11.7331 13.1509 12.0333L13.5376 12.7021C13.1625 13.1481 12.648 13.4547 12.0772 13.5722L11.6949 12.911C11.5255 12.9238 11.3543 12.9136 11.1859 12.8801C10.8201 12.8074 10.4841 12.6278 10.2203 12.3641C9.95653 12.1004 9.7769 11.7644 9.70411 11.3986C9.6313 11.0328 9.66862 10.6536 9.81133 10.3091C9.95402 9.96448 10.1957 9.66994 10.5058 9.46269C10.8159 9.25546 11.1805 9.14482 11.5535 9.14475C11.8012 9.14473 12.0464 9.19348 12.2753 9.28823C12.5041 9.38298 12.7121 9.5219 12.8872 9.69701C13.0623 9.87212 13.2013 10.08 13.2961 10.3088C13.3909 10.5377 13.4397 10.7829 13.4397 11.0306ZM12.0773 13.5722L15.3289 19.1961L16.3093 20.8942L17.29 19.1961L18.5125 17.0789L19.7316 19.1885L20.7115 20.886L21.692 19.1882L23.3366 16.3388H26.0226C26.0545 16.0569 26.0705 15.7735 26.0706 15.4898C26.0706 15.2061 26.0545 14.9226 26.0223 14.6407H22.3559L22.1855 14.9359L20.7111 17.4893L19.4919 15.3796L18.5114 13.6815L17.5325 15.3798L16.3093 17.497L13.5377 12.7021C13.1626 13.1482 12.6481 13.4547 12.0773 13.5722ZM26.0706 15.4896C26.0706 15.7733 26.0545 16.0568 26.0226 16.3387H27.8259V14.6406H26.0226C26.0547 14.9224 26.0707 15.2059 26.0706 15.4896ZM27.8265 14.6407H27.8539C27.879 14.9203 27.8928 15.2035 27.8928 15.4898C27.8928 20.6348 23.7227 24.8064 18.5765 24.8064C13.4303 24.8064 9.25895 20.6354 9.25895 15.4903C9.2576 14.5783 9.39078 13.6712 9.65417 12.7981C10.0857 13.2627 10.6727 13.5527 11.3039 13.6131C11.1654 14.2123 11.0811 14.9087 11.0811 15.4898C11.0811 19.6278 14.4359 22.9841 18.5767 22.9841C22.4298 22.9841 25.6015 20.0779 26.0231 16.3388H27.8265V14.6407Z" fill="white"/>
<path d="M50.7707 19.9784H48V11H50.8934C51.7644 11 52.5096 11.1797 53.1293 11.5392C53.7489 11.8958 54.2238 12.4087 54.554 13.078C54.8843 13.7444 55.0494 14.5423 55.0494 15.4717C55.0494 16.4069 54.8828 17.2121 54.5497 17.8872C54.2165 18.5594 53.7313 19.0767 53.0942 19.4392C52.457 19.7986 51.6825 19.9784 50.7707 19.9784ZM49.0872 19.0139H50.7005C51.4429 19.0139 52.0581 18.8707 52.5462 18.5843C53.0343 18.2979 53.3981 17.8901 53.6378 17.3611C53.8774 16.8321 53.9973 16.2023 53.9973 15.4717C53.9973 14.7468 53.8789 14.1229 53.6422 13.5997C53.4054 13.0736 53.0518 12.6703 52.5813 12.3897C52.1107 12.1062 51.5247 11.9645 50.8233 11.9645H49.0872V19.0139Z" fill="white"/>
<path d="M59.5562 20.1187C58.9073 20.1187 58.3476 19.9755 57.8771 19.689C57.4095 19.3997 57.0485 18.9964 56.7943 18.4791C56.5429 17.9588 56.4172 17.3538 56.4172 16.6641C56.4172 15.9744 56.5429 15.3664 56.7943 14.8404C57.0485 14.3114 57.4022 13.8993 57.8552 13.6041C58.3111 13.306 58.843 13.1569 59.4509 13.1569C59.8017 13.1569 60.148 13.2154 60.4899 13.3323C60.8319 13.4492 61.1432 13.6392 61.4237 13.9022C61.7043 14.1623 61.9279 14.5072 62.0945 14.9368C62.2611 15.3664 62.3444 15.8954 62.3444 16.5238V16.9622H57.1537V16.0679H61.2922C61.2922 15.6879 61.2162 15.3489 61.0642 15.0508C60.9152 14.7527 60.7018 14.5174 60.4242 14.345C60.1495 14.1725 59.825 14.0863 59.4509 14.0863C59.0388 14.0863 58.6823 14.1886 58.3813 14.3932C58.0831 14.5949 57.8537 14.8579 57.693 15.1823C57.5322 15.5067 57.4519 15.8545 57.4519 16.2257V16.8219C57.4519 17.3305 57.5395 17.7616 57.7149 18.1152C57.8932 18.4659 58.1401 18.7333 58.4558 18.9175C58.7714 19.0987 59.1382 19.1893 59.5562 19.1893C59.828 19.1893 60.0735 19.1513 60.2927 19.0753C60.5148 18.9964 60.7062 18.8795 60.867 18.7246C61.0277 18.5667 61.1519 18.3709 61.2396 18.1371L62.2392 18.4177C62.1339 18.7567 61.9571 19.0548 61.7087 19.312C61.4603 19.5663 61.1534 19.765 60.7881 19.9082C60.4227 20.0485 60.0121 20.1187 59.5562 20.1187Z" fill="white"/>
<path d="M63.9182 22.5036V13.2446H64.9178V14.3143H65.0405C65.1165 14.1974 65.2217 14.0483 65.3562 13.8671C65.4935 13.683 65.6893 13.5193 65.9436 13.3761C66.2008 13.23 66.5486 13.1569 66.987 13.1569C67.554 13.1569 68.0538 13.2987 68.4863 13.5822C68.9189 13.8657 69.2564 14.2675 69.499 14.7878C69.7416 15.308 69.8629 15.9217 69.8629 16.629C69.8629 17.3422 69.7416 17.9603 69.499 18.4834C69.2564 19.0037 68.9203 19.407 68.4907 19.6934C68.0611 19.9769 67.5657 20.1187 67.0045 20.1187C66.572 20.1187 66.2256 20.0471 65.9655 19.9039C65.7054 19.7577 65.5052 19.5926 65.3649 19.4085C65.2246 19.2214 65.1165 19.0665 65.0405 18.9438H64.9528V22.5036H63.9182ZM64.9353 16.6115C64.9353 17.12 65.0098 17.5687 65.1589 17.9574C65.3079 18.3432 65.5257 18.6457 65.8121 18.8649C66.0985 19.0811 66.4492 19.1893 66.8642 19.1893C67.2968 19.1893 67.6577 19.0753 67.9471 18.8473C68.2394 18.6164 68.4586 18.3066 68.6047 17.9179C68.7537 17.5263 68.8283 17.0908 68.8283 16.6115C68.8283 16.138 68.7552 15.7113 68.6091 15.3314C68.4659 14.9485 68.2481 14.646 67.9559 14.4239C67.6665 14.1988 67.3026 14.0863 66.8642 14.0863C66.4434 14.0863 66.0897 14.193 65.8033 14.4063C65.5169 14.6168 65.3006 14.912 65.1545 15.2919C65.0084 15.6689 64.9353 16.1088 64.9353 16.6115Z" fill="white"/>
<path d="M72.4757 11V19.9784H71.4411V11H72.4757Z" fill="white"/>
<path d="M77.1063 20.1187C76.4984 20.1187 75.965 19.974 75.5062 19.6847C75.0502 19.3953 74.6937 18.9905 74.4365 18.4703C74.1822 17.9501 74.0551 17.3422 74.0551 16.6466C74.0551 15.9451 74.1822 15.3328 74.4365 14.8097C74.6937 14.2865 75.0502 13.8803 75.5062 13.5909C75.965 13.3016 76.4984 13.1569 77.1063 13.1569C77.7142 13.1569 78.2461 13.3016 78.7021 13.5909C79.1609 13.8803 79.5175 14.2865 79.7718 14.8097C80.029 15.3328 80.1576 15.9451 80.1576 16.6466C80.1576 17.3422 80.029 17.9501 79.7718 18.4703C79.5175 18.9905 79.1609 19.3953 78.7021 19.6847C78.2461 19.974 77.7142 20.1187 77.1063 20.1187ZM77.1063 19.1893C77.5681 19.1893 77.948 19.0709 78.2461 18.8342C78.5443 18.5974 78.7649 18.2862 78.9081 17.9004C79.0513 17.5146 79.1229 17.0966 79.1229 16.6466C79.1229 16.1965 79.0513 15.7771 78.9081 15.3884C78.7649 14.9996 78.5443 14.6855 78.2461 14.4458C77.948 14.2061 77.5681 14.0863 77.1063 14.0863C76.6445 14.0863 76.2646 14.2061 75.9665 14.4458C75.6684 14.6855 75.4477 14.9996 75.3045 15.3884C75.1613 15.7771 75.0897 16.1965 75.0897 16.6466C75.0897 17.0966 75.1613 17.5146 75.3045 17.9004C75.4477 18.2862 75.6684 18.5974 75.9665 18.8342C76.2646 19.0709 76.6445 19.1893 77.1063 19.1893Z" fill="white"/>
<path d="M82.1621 22.5036C81.9868 22.5036 81.8304 22.4889 81.693 22.4597C81.5557 22.4334 81.4607 22.4071 81.4081 22.3808L81.6711 21.4689C81.9225 21.5332 82.1446 21.5566 82.3375 21.5391C82.5304 21.5215 82.7014 21.4353 82.8504 21.2804C83.0024 21.1284 83.1412 20.8815 83.2669 20.5395L83.4598 20.0135L80.9697 13.2446H82.092L83.9508 18.6106H84.0209L85.8797 13.2446H87.002L84.1437 20.9604C84.0151 21.3082 83.8558 21.5961 83.6658 21.824C83.4759 22.0549 83.2552 22.2259 83.0038 22.337C82.7554 22.448 82.4748 22.5036 82.1621 22.5036Z" fill="white"/>
<path d="M37.0358 0V31.892H36.0071V0H37.0358Z" fill="#0176B3"/>
</svg>
