<svg width="193" height="32" viewBox="0 0 193 32" fill="none" xmlns="http://www.w3.org/2000/svg">
<path d="M182.748 0H5.25167C2.35124 0 0 2.34097 0 5.2287V26.7713C0 29.659 2.35124 32 5.25167 32H182.748C185.649 32 188 29.659 188 26.7713V5.2287C188 2.34097 185.649 0 182.748 0Z" fill="#0284C7"/>
<path fill-rule="evenodd" clip-rule="evenodd" d="M15.953 9.08098C15.0217 9.36227 14.1563 9.82734 13.4078 10.4487C13.0942 9.9141 12.5953 9.51317 12.0057 9.32197C12.9365 8.48467 14.0308 7.84959 15.2196 7.45684C16.4084 7.06412 17.6658 6.92227 18.9122 7.04032C20.1586 7.15835 21.367 7.53367 22.461 8.14257C22.7378 8.29664 23.0057 8.46481 23.2638 8.64623C23.2726 8.64241 23.2815 8.63865 23.2904 8.63496C23.6254 8.49622 23.9941 8.45992 24.3497 8.53068C24.7054 8.60145 25.0321 8.77608 25.2885 9.03249C25.5449 9.28889 25.7195 9.61558 25.7902 9.97122C25.8609 10.3269 25.8246 10.6955 25.6857 11.0305C25.5469 11.3655 25.3119 11.6518 25.0104 11.8532C24.7088 12.0546 24.3544 12.1621 23.9917 12.162C23.751 12.162 23.5126 12.1146 23.2901 12.0225C23.0677 11.9303 22.8656 11.7953 22.6954 11.6251C22.5252 11.4548 22.3901 11.2527 22.298 11.0303C22.2059 10.8079 22.1585 10.5695 22.1586 10.3287C22.1586 10.2347 22.1658 10.1412 22.18 10.0491C21.9881 9.91724 21.7896 9.79446 21.5851 9.68126C20.734 9.21001 19.7972 8.91408 18.8298 8.81099C17.8625 8.70789 16.8843 8.79969 15.953 9.08098ZM13.0638 11.7221C13.0638 12.0672 12.9663 12.405 12.7832 12.6967L13.159 13.3468C12.7944 13.7804 12.2943 14.0784 11.7394 14.1926L11.3678 13.5499C11.2032 13.5623 11.0368 13.5524 10.8731 13.5199C10.5175 13.4492 10.1908 13.2746 9.93446 13.0183C9.67808 12.762 9.50347 12.4354 9.43272 12.0798C9.36195 11.7243 9.39822 11.3557 9.53694 11.0207C9.67563 10.6858 9.91055 10.3995 10.212 10.198C10.5134 9.9966 10.8678 9.88906 11.2304 9.88899C11.4711 9.88897 11.7095 9.93635 11.932 10.0285C12.1544 10.1206 12.3565 10.2556 12.5268 10.4258C12.697 10.596 12.8321 10.7981 12.9242 11.0205C13.0164 11.2429 13.0638 11.4813 13.0638 11.7221ZM11.7395 14.1926L14.9002 19.6592L15.8532 21.3098L16.8064 19.6592L17.9947 17.6013L19.1798 19.6518L20.1323 21.3019L21.0853 19.6515L22.6839 16.8819H25.2948C25.3258 16.6079 25.3414 16.3323 25.3414 16.0566C25.3415 15.7808 25.3258 15.5052 25.2945 15.2312H21.7307L21.565 15.5181L20.1318 18.0002L18.9467 15.9494L17.9937 14.2988L17.0422 15.9497L15.8532 18.0076L13.1591 13.3469C12.7945 13.7804 12.2944 14.0784 11.7395 14.1926ZM25.3415 16.0564C25.3414 16.3322 25.3258 16.6077 25.2948 16.8817H27.0476V15.2311H25.2948C25.326 15.5051 25.3416 15.7806 25.3415 16.0564ZM27.0482 15.2312H27.0749C27.0993 15.503 27.1127 15.7783 27.1127 16.0566C27.1127 21.0577 23.0592 25.1126 18.0569 25.1126C13.0547 25.1126 9.00001 21.0582 9.00001 16.057C8.9987 15.1706 9.12816 14.2888 9.38418 13.4402C9.8036 13.8917 10.3742 14.1736 10.9877 14.2324C10.8532 14.8148 10.7712 15.4917 10.7712 16.0566C10.7712 20.0789 14.0321 23.3413 18.0572 23.3413C21.8025 23.3413 24.8855 20.5163 25.2953 16.8819H27.0482V15.2312Z" fill="white"/>
<path d="M46.6932 19.8466H44V11.1193H46.8125C47.6591 11.1193 48.3835 11.294 48.9858 11.6435C49.5881 11.9901 50.0497 12.4886 50.3707 13.1392C50.6918 13.7869 50.8523 14.5625 50.8523 15.4659C50.8523 16.375 50.6903 17.1577 50.3665 17.8139C50.0426 18.4673 49.571 18.9702 48.9517 19.3224C48.3324 19.6719 47.5795 19.8466 46.6932 19.8466ZM45.0568 18.9091H46.625C47.3466 18.9091 47.9446 18.7699 48.419 18.4915C48.8935 18.2131 49.2472 17.8168 49.4801 17.3026C49.7131 16.7884 49.8295 16.1761 49.8295 15.4659C49.8295 14.7614 49.7145 14.1548 49.4844 13.6463C49.2543 13.1349 48.9105 12.7429 48.4531 12.4702C47.9957 12.1946 47.4261 12.0568 46.7443 12.0568H45.0568V18.9091Z" fill="white"/>
<path d="M55.233 19.983C54.6023 19.983 54.0582 19.8438 53.6009 19.5653C53.1463 19.2841 52.7955 18.892 52.5483 18.3892C52.304 17.8835 52.1818 17.2955 52.1818 16.625C52.1818 15.9545 52.304 15.3636 52.5483 14.8523C52.7955 14.3381 53.1392 13.9375 53.5795 13.6506C54.0227 13.3608 54.5398 13.2159 55.1307 13.2159C55.4716 13.2159 55.8082 13.2727 56.1406 13.3864C56.473 13.5 56.7756 13.6847 57.0483 13.9403C57.321 14.1932 57.5384 14.5284 57.7003 14.946C57.8622 15.3636 57.9432 15.8778 57.9432 16.4886V16.9148H52.8977V16.0455H56.9205C56.9205 15.6761 56.8466 15.3466 56.6989 15.0568C56.554 14.767 56.3466 14.5384 56.0767 14.3707C55.8097 14.2031 55.4943 14.1193 55.1307 14.1193C54.7301 14.1193 54.3835 14.2188 54.0909 14.4176C53.8011 14.6136 53.5781 14.8693 53.4219 15.1847C53.2656 15.5 53.1875 15.8381 53.1875 16.1989V16.7784C53.1875 17.2727 53.2727 17.6918 53.4432 18.0355C53.6165 18.3764 53.8565 18.6364 54.1634 18.8153C54.4702 18.9915 54.8267 19.0795 55.233 19.0795C55.4972 19.0795 55.7358 19.0426 55.9489 18.9688C56.1648 18.892 56.3509 18.7784 56.5071 18.6278C56.6634 18.4744 56.7841 18.2841 56.8693 18.0568L57.8409 18.3295C57.7386 18.6591 57.5668 18.9489 57.3253 19.1989C57.0838 19.446 56.7855 19.6392 56.4304 19.7784C56.0753 19.9148 55.6761 19.983 55.233 19.983Z" fill="white"/>
<path d="M59.473 22.3011V13.3011H60.4446V14.3409H60.5639C60.6378 14.2273 60.7401 14.0824 60.8707 13.9063C61.0043 13.7273 61.1946 13.5682 61.4418 13.429C61.6918 13.2869 62.0298 13.2159 62.456 13.2159C63.0071 13.2159 63.4929 13.3537 63.9134 13.6293C64.3338 13.9048 64.6619 14.2955 64.8977 14.8011C65.1335 15.3068 65.2514 15.9034 65.2514 16.5909C65.2514 17.2841 65.1335 17.8849 64.8977 18.3935C64.6619 18.8991 64.3352 19.2912 63.9176 19.5696C63.5 19.8452 63.0185 19.983 62.473 19.983C62.0526 19.983 61.7159 19.9134 61.4631 19.7741C61.2102 19.6321 61.0156 19.4716 60.8793 19.2926C60.7429 19.1108 60.6378 18.9602 60.5639 18.8409H60.4787V22.3011H59.473ZM60.4616 16.5739C60.4616 17.0682 60.5341 17.5043 60.679 17.8821C60.8239 18.2571 61.0355 18.5511 61.3139 18.7642C61.5923 18.9744 61.9332 19.0795 62.3366 19.0795C62.7571 19.0795 63.108 18.9688 63.3892 18.7472C63.6733 18.5227 63.8864 18.2216 64.0284 17.8438C64.1733 17.4631 64.2457 17.0398 64.2457 16.5739C64.2457 16.1136 64.1747 15.6989 64.0327 15.3295C63.8935 14.9574 63.6818 14.6634 63.3977 14.4474C63.1165 14.2287 62.7628 14.1193 62.3366 14.1193C61.9276 14.1193 61.5838 14.223 61.3054 14.4304C61.027 14.6349 60.8168 14.9219 60.6747 15.2912C60.5327 15.6577 60.4616 16.0852 60.4616 16.5739Z" fill="white"/>
<path d="M67.7912 11.1193V19.8466H66.7855V11.1193H67.7912Z" fill="white"/>
<path d="M72.2923 19.983C71.7013 19.983 71.1829 19.8423 70.7369 19.5611C70.2937 19.2798 69.9471 18.8864 69.6971 18.3807C69.4499 17.875 69.3263 17.2841 69.3263 16.608C69.3263 15.9261 69.4499 15.331 69.6971 14.8224C69.9471 14.3139 70.2937 13.919 70.7369 13.6378C71.1829 13.3565 71.7013 13.2159 72.2923 13.2159C72.8832 13.2159 73.4002 13.3565 73.8434 13.6378C74.2894 13.919 74.636 14.3139 74.8832 14.8224C75.1332 15.331 75.2582 15.9261 75.2582 16.608C75.2582 17.2841 75.1332 17.875 74.8832 18.3807C74.636 18.8864 74.2894 19.2798 73.8434 19.5611C73.4002 19.8423 72.8832 19.983 72.2923 19.983ZM72.2923 19.0795C72.7411 19.0795 73.1104 18.9645 73.4002 18.7344C73.69 18.5043 73.9045 18.2017 74.0437 17.8267C74.1829 17.4517 74.2525 17.0455 74.2525 16.608C74.2525 16.1705 74.1829 15.7628 74.0437 15.3849C73.9045 15.0071 73.69 14.7017 73.4002 14.4688C73.1104 14.2358 72.7411 14.1193 72.2923 14.1193C71.8434 14.1193 71.4741 14.2358 71.1843 14.4688C70.8945 14.7017 70.68 15.0071 70.5408 15.3849C70.4016 15.7628 70.332 16.1705 70.332 16.608C70.332 17.0455 70.4016 17.4517 70.5408 17.8267C70.68 18.2017 70.8945 18.5043 71.1843 18.7344C71.4741 18.9645 71.8434 19.0795 72.2923 19.0795Z" fill="white"/>
<path d="M77.2067 22.3011C77.0362 22.3011 76.8842 22.2869 76.7507 22.2585C76.6172 22.233 76.5249 22.2074 76.4737 22.1818L76.7294 21.2955C76.9737 21.358 77.1896 21.3807 77.3771 21.3636C77.5646 21.3466 77.7308 21.2628 77.8757 21.1122C78.0234 20.9645 78.1584 20.7244 78.2805 20.392L78.468 19.8807L76.0476 13.3011H77.1385L78.9453 18.517H79.0135L80.8203 13.3011H81.9112L79.1328 20.8011C79.0078 21.1392 78.853 21.419 78.6683 21.6406C78.4837 21.8651 78.2692 22.0312 78.0249 22.1392C77.7834 22.2472 77.5107 22.3011 77.2067 22.3011Z" fill="white"/>
<path d="M89.4602 13.3011V14.1534H86.0682V13.3011H89.4602ZM87.0568 11.733H88.0625V17.9716C88.0625 18.2557 88.1037 18.4687 88.1861 18.6108C88.2713 18.75 88.3793 18.8438 88.5099 18.892C88.6435 18.9375 88.7841 18.9602 88.9318 18.9602C89.0426 18.9602 89.1335 18.9545 89.2045 18.9432C89.2756 18.929 89.3324 18.9176 89.375 18.9091L89.5795 19.8125C89.5114 19.8381 89.4162 19.8636 89.294 19.8892C89.1719 19.9176 89.017 19.9318 88.8295 19.9318C88.5455 19.9318 88.267 19.8707 87.9943 19.7486C87.7244 19.6264 87.5 19.4403 87.321 19.1903C87.1449 18.9403 87.0568 18.625 87.0568 18.2443V11.733Z" fill="white"/>
<path d="M93.5618 19.983C92.9709 19.983 92.4524 19.8423 92.0064 19.5611C91.5632 19.2798 91.2166 18.8864 90.9666 18.3807C90.7195 17.875 90.5959 17.2841 90.5959 16.608C90.5959 15.9261 90.7195 15.331 90.9666 14.8224C91.2166 14.3139 91.5632 13.919 92.0064 13.6378C92.4524 13.3565 92.9709 13.2159 93.5618 13.2159C94.1527 13.2159 94.6697 13.3565 95.1129 13.6378C95.5589 13.919 95.9055 14.3139 96.1527 14.8224C96.4027 15.331 96.5277 15.9261 96.5277 16.608C96.5277 17.2841 96.4027 17.875 96.1527 18.3807C95.9055 18.8864 95.5589 19.2798 95.1129 19.5611C94.6697 19.8423 94.1527 19.983 93.5618 19.983ZM93.5618 19.0795C94.0107 19.0795 94.38 18.9645 94.6697 18.7344C94.9595 18.5043 95.174 18.2017 95.3132 17.8267C95.4524 17.4517 95.522 17.0455 95.522 16.608C95.522 16.1705 95.4524 15.7628 95.3132 15.3849C95.174 15.0071 94.9595 14.7017 94.6697 14.4688C94.38 14.2358 94.0107 14.1193 93.5618 14.1193C93.1129 14.1193 92.7436 14.2358 92.4538 14.4688C92.1641 14.7017 91.9496 15.0071 91.8104 15.3849C91.6712 15.7628 91.6016 16.1705 91.6016 16.608C91.6016 17.0455 91.6712 17.4517 91.8104 17.8267C91.9496 18.2017 92.1641 18.5043 92.4538 18.7344C92.7436 18.9645 93.1129 19.0795 93.5618 19.0795Z" fill="white"/>
<path d="M103.159 19.8466L100.773 11.1193H101.847L103.671 18.2273H103.756L105.614 11.1193H106.807L108.665 18.2273H108.75L110.574 11.1193H111.648L109.262 19.8466H108.171L106.245 12.892H106.176L104.25 19.8466H103.159Z" fill="white"/>
<path d="M116.953 17.1705V13.3011H117.959V19.8466H116.953V18.7386H116.885C116.732 19.071 116.493 19.3537 116.169 19.5866C115.846 19.8168 115.436 19.9318 114.942 19.9318C114.533 19.9318 114.169 19.8423 113.851 19.6634C113.533 19.4815 113.283 19.2088 113.101 18.8452C112.919 18.4787 112.828 18.017 112.828 17.4602V13.3011H113.834V17.392C113.834 17.8693 113.968 18.25 114.235 18.5341C114.505 18.8182 114.848 18.9602 115.266 18.9602C115.516 18.9602 115.77 18.8963 116.029 18.7685C116.29 18.6406 116.509 18.4446 116.685 18.1804C116.864 17.9162 116.953 17.5795 116.953 17.1705Z" fill="white"/>
<path d="M120.807 15.9091V19.8466H119.801V13.3011H120.773V14.3239H120.858C121.011 13.9915 121.244 13.7244 121.557 13.5227C121.869 13.3182 122.273 13.2159 122.767 13.2159C123.21 13.2159 123.598 13.3068 123.93 13.4886C124.263 13.6676 124.521 13.9403 124.706 14.3068C124.891 14.6705 124.983 15.1307 124.983 15.6875V19.8466H123.977V15.7557C123.977 15.2415 123.844 14.8409 123.577 14.554C123.31 14.2642 122.943 14.1193 122.477 14.1193C122.156 14.1193 121.869 14.1889 121.616 14.3281C121.366 14.4673 121.169 14.6705 121.024 14.9375C120.879 15.2045 120.807 15.5284 120.807 15.9091Z" fill="white"/>
<path d="M129.292 19.983C128.747 19.983 128.265 19.8452 127.848 19.5696C127.43 19.2912 127.103 18.8991 126.868 18.3935C126.632 17.8849 126.514 17.2841 126.514 16.5909C126.514 15.9034 126.632 15.3068 126.868 14.8011C127.103 14.2955 127.431 13.9048 127.852 13.6293C128.272 13.3537 128.758 13.2159 129.309 13.2159C129.735 13.2159 130.072 13.2869 130.319 13.429C130.569 13.5682 130.76 13.7273 130.89 13.9063C131.024 14.0824 131.127 14.2273 131.201 14.3409H131.287V11.1193H132.292V19.8466H131.321V18.8409H131.201C131.127 18.9602 131.022 19.1108 130.886 19.2926C130.75 19.4716 130.555 19.6321 130.302 19.7741C130.049 19.9134 129.713 19.983 129.292 19.983ZM129.429 19.0795C129.832 19.0795 130.173 18.9744 130.451 18.7642C130.73 18.5511 130.941 18.2571 131.086 17.8821C131.231 17.5043 131.304 17.0682 131.304 16.5739C131.304 16.0852 131.233 15.6577 131.091 15.2912C130.949 14.9219 130.738 14.6349 130.46 14.4304C130.181 14.223 129.838 14.1193 129.429 14.1193C129.002 14.1193 128.647 14.2287 128.363 14.4474C128.082 14.6634 127.87 14.9574 127.728 15.3295C127.589 15.6989 127.52 16.1136 127.52 16.5739C127.52 17.0398 127.591 17.4631 127.733 17.8438C127.877 18.2216 128.091 18.5227 128.372 18.7472C128.656 18.9688 129.008 19.0795 129.429 19.0795Z" fill="white"/>
<path d="M137.018 19.983C136.387 19.983 135.843 19.8438 135.386 19.5653C134.931 19.2841 134.581 18.892 134.333 18.3892C134.089 17.8835 133.967 17.2955 133.967 16.625C133.967 15.9545 134.089 15.3636 134.333 14.8523C134.581 14.3381 134.924 13.9375 135.365 13.6506C135.808 13.3608 136.325 13.2159 136.916 13.2159C137.257 13.2159 137.593 13.2727 137.926 13.3864C138.258 13.5 138.561 13.6847 138.833 13.9403C139.106 14.1932 139.324 14.5284 139.485 14.946C139.647 15.3636 139.728 15.8778 139.728 16.4886V16.9148H134.683V16.0455H138.706C138.706 15.6761 138.632 15.3466 138.484 15.0568C138.339 14.767 138.132 14.5384 137.862 14.3707C137.595 14.2031 137.279 14.1193 136.916 14.1193C136.515 14.1193 136.169 14.2188 135.876 14.4176C135.586 14.6136 135.363 14.8693 135.207 15.1847C135.051 15.5 134.973 15.8381 134.973 16.1989V16.7784C134.973 17.2727 135.058 17.6918 135.228 18.0355C135.402 18.3764 135.642 18.6364 135.949 18.8153C136.255 18.9915 136.612 19.0795 137.018 19.0795C137.282 19.0795 137.521 19.0426 137.734 18.9688C137.95 18.892 138.136 18.7784 138.292 18.6278C138.449 18.4744 138.569 18.2841 138.654 18.0568L139.626 18.3295C139.524 18.6591 139.352 18.9489 139.11 19.1989C138.869 19.446 138.571 19.6392 138.216 19.7784C137.86 19.9148 137.461 19.983 137.018 19.983Z" fill="white"/>
<path d="M141.258 19.8466V13.3011H142.23V14.2898H142.298C142.417 13.9659 142.633 13.7031 142.946 13.5014C143.258 13.2997 143.61 13.1989 144.002 13.1989C144.076 13.1989 144.169 13.2003 144.279 13.2031C144.39 13.206 144.474 13.2102 144.531 13.2159V14.2386C144.497 14.2301 144.419 14.2173 144.297 14.2003C144.177 14.1804 144.051 14.1705 143.917 14.1705C143.599 14.1705 143.315 14.2372 143.065 14.3707C142.818 14.5014 142.622 14.6832 142.477 14.9162C142.335 15.1463 142.264 15.4091 142.264 15.7045V19.8466H141.258Z" fill="white"/>
<path d="M151.825 13.8466C151.732 13.5597 151.608 13.3026 151.455 13.0753C151.304 12.8452 151.124 12.6491 150.913 12.4872C150.706 12.3253 150.47 12.2017 150.206 12.1165C149.942 12.0313 149.652 11.9886 149.337 11.9886C148.82 11.9886 148.349 12.1222 147.926 12.3892C147.503 12.6563 147.166 13.0497 146.916 13.5696C146.666 14.0895 146.541 14.7273 146.541 15.483C146.541 16.2386 146.668 16.8764 146.92 17.3963C147.173 17.9162 147.516 18.3097 147.947 18.5767C148.379 18.8438 148.865 18.9773 149.405 18.9773C149.905 18.9773 150.345 18.8707 150.726 18.6577C151.109 18.4418 151.408 18.1378 151.621 17.7457C151.837 17.3509 151.945 16.8864 151.945 16.3523L152.268 16.4205H149.643V15.483H152.967V16.4205C152.967 17.1392 152.814 17.7642 152.507 18.2955C152.203 18.8267 151.783 19.2386 151.246 19.5312C150.712 19.821 150.098 19.9659 149.405 19.9659C148.632 19.9659 147.953 19.7841 147.368 19.4205C146.786 19.0568 146.331 18.5398 146.004 17.8693C145.68 17.1989 145.518 16.4034 145.518 15.483C145.518 14.7926 145.611 14.1719 145.795 13.6207C145.983 13.0668 146.247 12.5952 146.588 12.206C146.929 11.8168 147.332 11.5185 147.798 11.3111C148.264 11.1037 148.777 11 149.337 11C149.797 11 150.226 11.0696 150.624 11.2088C151.024 11.3452 151.381 11.5398 151.693 11.7926C152.009 12.0426 152.271 12.3423 152.482 12.6918C152.692 13.0384 152.837 13.4233 152.916 13.8466H151.825Z" fill="white"/>
<path d="M154.641 19.8466V13.3011H155.613V14.2898H155.681C155.8 13.9659 156.016 13.7031 156.328 13.5014C156.641 13.2997 156.993 13.1989 157.385 13.1989C157.459 13.1989 157.551 13.2003 157.662 13.2031C157.773 13.206 157.857 13.2102 157.914 13.2159V14.2386C157.88 14.2301 157.801 14.2173 157.679 14.2003C157.56 14.1804 157.434 14.1705 157.3 14.1705C156.982 14.1705 156.698 14.2372 156.448 14.3707C156.201 14.5014 156.005 14.6832 155.86 14.9162C155.718 15.1463 155.647 15.4091 155.647 15.7045V19.8466H154.641Z" fill="white"/>
<path d="M161.032 20C160.617 20 160.241 19.9219 159.903 19.7656C159.565 19.6065 159.296 19.3778 159.097 19.0795C158.898 18.7784 158.799 18.4148 158.799 17.9886C158.799 17.6136 158.873 17.3097 159.021 17.0767C159.168 16.8409 159.366 16.6562 159.613 16.5227C159.86 16.3892 160.133 16.2898 160.431 16.2244C160.732 16.1562 161.035 16.1023 161.339 16.0625C161.737 16.0114 162.059 15.973 162.306 15.9474C162.556 15.919 162.738 15.8722 162.852 15.8068C162.968 15.7415 163.026 15.6278 163.026 15.4659V15.4318C163.026 15.0114 162.911 14.6847 162.681 14.4517C162.454 14.2188 162.109 14.1023 161.646 14.1023C161.165 14.1023 160.789 14.2074 160.516 14.4176C160.244 14.6278 160.052 14.8523 159.941 15.0909L158.987 14.75C159.157 14.3523 159.384 14.0426 159.668 13.821C159.955 13.5966 160.268 13.4403 160.606 13.3523C160.947 13.2614 161.282 13.2159 161.612 13.2159C161.822 13.2159 162.063 13.2415 162.336 13.2926C162.612 13.3409 162.877 13.4418 163.133 13.5952C163.391 13.7486 163.606 13.9801 163.776 14.2898C163.947 14.5994 164.032 15.0142 164.032 15.5341V19.8466H163.026V18.9602H162.975C162.907 19.1023 162.793 19.2543 162.634 19.4162C162.475 19.5781 162.263 19.7159 161.999 19.8295C161.735 19.9432 161.413 20 161.032 20ZM161.185 19.0966C161.583 19.0966 161.918 19.0185 162.191 18.8622C162.467 18.706 162.674 18.5043 162.813 18.2571C162.955 18.0099 163.026 17.75 163.026 17.4773V16.5568C162.984 16.608 162.89 16.6548 162.745 16.6974C162.603 16.7372 162.438 16.7727 162.251 16.804C162.066 16.8324 161.886 16.858 161.71 16.8807C161.536 16.9006 161.396 16.9176 161.288 16.9318C161.026 16.9659 160.782 17.0213 160.555 17.098C160.33 17.1719 160.148 17.2841 160.009 17.4347C159.873 17.5824 159.805 17.7841 159.805 18.0398C159.805 18.3892 159.934 18.6534 160.192 18.8324C160.454 19.0085 160.785 19.0966 161.185 19.0966Z" fill="white"/>
<path d="M165.868 22.3011V13.3011H166.839V14.3409H166.958C167.032 14.2273 167.135 14.0824 167.265 13.9063C167.399 13.7273 167.589 13.5682 167.836 13.429C168.086 13.2869 168.424 13.2159 168.851 13.2159C169.402 13.2159 169.887 13.3537 170.308 13.6293C170.728 13.9048 171.056 14.2955 171.292 14.8011C171.528 15.3068 171.646 15.9034 171.646 16.5909C171.646 17.2841 171.528 17.8849 171.292 18.3935C171.056 18.8991 170.73 19.2912 170.312 19.5696C169.895 19.8452 169.413 19.983 168.868 19.983C168.447 19.983 168.11 19.9134 167.858 19.7741C167.605 19.6321 167.41 19.4716 167.274 19.2926C167.137 19.1108 167.032 18.9602 166.958 18.8409H166.873V22.3011H165.868ZM166.856 16.5739C166.856 17.0682 166.929 17.5043 167.074 17.8821C167.218 18.2571 167.43 18.5511 167.708 18.7642C167.987 18.9744 168.328 19.0795 168.731 19.0795C169.152 19.0795 169.502 18.9688 169.784 18.7472C170.068 18.5227 170.281 18.2216 170.423 17.8438C170.568 17.4631 170.64 17.0398 170.64 16.5739C170.64 16.1136 170.569 15.6989 170.427 15.3295C170.288 14.9574 170.076 14.6634 169.792 14.4474C169.511 14.2287 169.157 14.1193 168.731 14.1193C168.322 14.1193 167.978 14.223 167.7 14.4304C167.422 14.6349 167.211 14.9219 167.069 15.2912C166.927 15.6577 166.856 16.0852 166.856 16.5739Z" fill="white"/>
<path d="M174.186 15.9091V19.8466H173.18V11.1193H174.186V14.3239H174.271C174.424 13.9858 174.654 13.7173 174.961 13.5185C175.271 13.3168 175.683 13.2159 176.197 13.2159C176.643 13.2159 177.034 13.3054 177.369 13.4844C177.704 13.6605 177.964 13.9318 178.149 14.2983C178.336 14.6619 178.43 15.125 178.43 15.6875V19.8466H177.424V15.7557C177.424 15.2358 177.289 14.8338 177.02 14.5497C176.752 14.2628 176.382 14.1193 175.907 14.1193C175.578 14.1193 175.282 14.1889 175.021 14.3281C174.762 14.4673 174.558 14.6705 174.407 14.9375C174.26 15.2045 174.186 15.5284 174.186 15.9091Z" fill="white"/>
<path d="M36 0V32H35V0H36Z" fill="#0176B3"/>
</svg>
