<svg xmlns="http://www.w3.org/2000/svg" fill="none" viewBox="0 0 78 78">
    <path
        fill="white"
        fillRule="evenodd"
        d="M28.79 8.617a30.146 30.146 0 00-10.538 5.663 10.478 10.478 0 00-5.806-4.665 37.48 37.48 0 0146.617-2.798l.11-.047a7.592 7.592 0 11-4.598 5.856 30.141 30.141 0 00-25.784-4.01zM16.828 19.553a7.59 7.59 0 01-1.162 4.036l1.556 2.692a10.427 10.427 0 01-5.878 3.502l-1.538-2.661a7.592 7.592 0 01-7.582-10.473 7.59 7.59 0 0114.604 2.904zm-5.483 10.23L24.43 52.419l3.946 6.834 3.948-6.834 4.92-8.522 4.907 8.491 3.944 6.833 3.946-6.834 6.62-11.469h10.81a30.414 30.414 0 000-6.834H52.715l-.686 1.188-5.935 10.277-4.907-8.492-3.946-6.834-3.94 6.835-4.924 8.522-11.155-19.3a10.427 10.427 0 01-5.878 3.503zM67.666 37.5c0 1.142-.065 2.283-.193 3.418h7.258v-6.835h-7.258c.129 1.135.194 2.275.193 3.417zm7.067-3.416h.11c.102 1.125.157 2.265.157 3.417C75 58.21 58.216 75 37.503 75S0 58.212 0 37.503c-.005-3.67.53-7.322 1.59-10.836a10.418 10.418 0 006.64 3.28c-.556 2.412-.896 5.215-.896 7.554 0 16.655 13.503 30.164 30.17 30.164 15.508 0 28.274-11.697 29.97-26.747h7.26v-6.834z"
        clipRule="evenodd"
    ></path>
</svg>