<?xml version="1.0" encoding="utf-8"?>
<!-- Generator: Adobe Illustrator 18.0.0, SVG Export Plug-In . SVG Version: 6.00 Build 0)  -->
<!DOCTYPE svg PUBLIC "-//W3C//DTD SVG 1.1//EN" "http://www.w3.org/Graphics/SVG/1.1/DTD/svg11.dtd">
<svg version="1.1" id="Layer_1" xmlns="http://www.w3.org/2000/svg" xmlns:xlink="http://www.w3.org/1999/xlink" x="0px" y="0px"
	 viewBox="0 0 1000 1000" enable-background="new 0 0 1000 1000" xml:space="preserve">
<path fill="#39C3DB" d="M675.4,473.2l-53.6,91l-68.5-116.7L484.9,564l-118.1-204c42.4-56.8,110.1-93.4,186.5-93.4
	c45.8,0,88.5,13.2,124.6,35.9c-0.7,3.8-1.1,7.6-1.1,11.6c0,34.4,27.9,62.2,62.2,62.2s62.2-27.9,62.2-62.2
	c0-34.4-27.9-62.2-62.2-62.2c-9.3,0-18.2,2.1-26.1,5.8c-45.8-30.2-100.6-47.9-159.6-47.9c-86.5,0-164,37.7-217,97.6L296,237.6
	c7-10.1,11.1-22.2,11.1-35.4c0-34.4-27.9-62.2-62.2-62.2s-62.2,27.9-62.2,62.2s27.9,62.2,62.2,62.2c1.8,0,3.5-0.1,5.3-0.3l52.2,90.3
	c-24.9,42.7-39,92.6-39,145.4c0,80.1,32.4,152.6,84.9,205.1c52.5,52.5,125,84.9,205.1,84.9c151,0,275.4-115.7,288.7-263.5
	c0.8-8.8,1.3-17.5,1.3-26.5v-26.5H675.4z M553.4,733.2c-64.5,0-122.8-26.3-165-68.4c-42.2-42.2-68.5-100.6-68.5-165
	c0-30.5,5.8-59.7,16.7-86.5L484.4,669l69-116.7l68.5,116.5l83.8-142.5H785C772,642.8,673.3,733.2,553.4,733.2z"/>
</svg>
