<svg width="660.7" height="649.8" viewBox="0 0 174.81 171.926" xmlns="http://www.w3.org/2000/svg"><path fill="#fff" d="m131.737 89.532-14.182 24.077-18.124-30.877-18.097 30.824-31.247-53.975C61.305 44.553 79.217 34.87 99.43 34.87a61.728 61.728 0 0 1 32.967 9.499 16.764 16.764 0 0 0-.29 3.069c0 9.101 7.381 16.457 16.456 16.457 9.076 0 16.458-7.382 16.458-16.457 0-9.102-7.382-16.457-16.458-16.457-2.46 0-4.815.555-6.905 1.534-12.118-7.99-26.617-12.673-42.228-12.673-22.886 0-43.391 9.975-57.414 25.823L31.354 27.196a16.33 16.33 0 0 0 2.937-9.366c0-9.102-7.382-16.457-16.457-16.457-9.075 0-16.457 7.382-16.457 16.457 0 9.075 7.382 16.457 16.457 16.457.476 0 .926-.026 1.402-.08L33.047 58.1C26.46 69.397 22.73 82.6 22.73 96.57c0 21.194 8.572 40.376 22.463 54.267 13.89 13.89 33.073 22.463 54.266 22.463 39.952 0 72.866-30.612 76.385-69.718.212-2.328.344-4.63.344-7.011v-7.012h-44.45zm-32.28 68.792c-17.065 0-32.49-6.959-43.655-18.098-11.166-11.165-18.124-26.617-18.124-43.656 0-8.07 1.534-15.796 4.418-22.887l39.106 67.654 18.256-30.876 18.124 30.823 22.172-37.703h20.981c-3.44 30.824-29.554 54.743-61.277 54.743z" style="stroke-width:.264583" transform="translate(-1.377 -1.373)"/></svg>